# xmcd
#
# Track frame offsets: 
#        300
#        18046
#        31347
#        46856
#        62167
#        80414
#        96244
#        115240
#        133290
#        151751
#        168045
#        183458
#        199784
#        215379
#        232194
#
# Disc length: 3275 seconds
#
# Revision: 0
# Processed by: cddbd v1.5.2PL0 Copyright (c) Steve Scherf et al.
# Submitted via: ExactAudioCopy v0.99pb5
#
DISCID=c40cc70f
DTITLE=Taylor Swift - Taylor Swift
DYEAR=1900
DGENRE=Country
TTITLE0=Tim McGraw
TTITLE1=Picture To Burn
TTITLE2=Teardrops on My Guitar
TTITLE3=A Place in This World
TTITLE4=Cold As You
TTITLE5=The Outside
TTITLE6=Tied Together with A Smile
TTITLE7=Stay Beautiful
TTITLE8=Should've Said No
TTITLE9=Mary's Song
TTITLE10=Our Song
TTITLE11=I'm Only Me When I'm With You
TTITLE12=Invisible
TTITLE13=A Perfectly Good Heart
TTITLE14=Teardrops on My Guitar-Pop Version
EXTD=
EXTT0=
EXTT1=
EXTT2=
EXTT3=
EXTT4=
EXTT5=
EXTT6=
EXTT7=
EXTT8=
EXTT9=
EXTT10=
EXTT11=
EXTT12=
EXTT13=
EXTT14=
PLAYORDER=
